<svg version="1.2" xmlns="http://www.w3.org/2000/svg" viewBox="0 0 396 327" width="396" height="327">
	<title>block</title>
	<defs>
		<linearGradient id="g1" x1="42.8" y1="272.4" x2="69.5" y2="26.8" gradientUnits="userSpaceOnUse">
			<stop offset="0" stop-color="#e23363"/>
			<stop offset="1" stop-color="#fb8e77"/>
		</linearGradient>
	</defs>
	<style>
		.s0 { fill: #5ab8e7 } 
		.s1 { fill: url(#g1) } 
	</style>
	<g id="&lt;Group&gt;">
		<g id="&lt;Group&gt;" style="mix-blend-mode: multiply">
			<g id="&lt;Group&gt;">
				<path id="&lt;Path&gt;" class="s0" d="m342.2 300.7h-268.7c-11.8 0-21.4-9.6-21.4-21.4v-213.7c0-11.8 9.6-21.4 21.4-21.4h268.7c11.8 0 21.4 9.6 21.4 21.4v213.7c0 11.8-9.6 21.4-21.4 21.4z"/>
			</g>
		</g>
		<path id="&lt;Mesh&gt;" class="s1" d="m42.8 37.7c6.7-6.7 16-10.9 26.3-10.9q0.2 0 0.4 0c-5.4 7.7-8.7 17.9-8.7 29q0 99.3 0 198.5c0 11.2 3.3 21.4 8.7 29-10 0-19.6-3.8-26.7-10.9-6.8-6.7-10.9-16-10.9-26.3q0-91 0-182.1c0-10.2 4.1-19.5 10.9-26.3zm26.7-10.9q118.3 0 236.6 0c10.3 0 19.6 4.2 26.3 10.9 6.7 6.8 10.9 16.1 10.9 26.3q0 91.1 0 182.1c0 10.3-4.2 19.6-10.9 26.3-6.7 6.7-16 10.9-26.3 10.9q-118.3 0-236.6 0c-5.4-7.6-8.7-17.8-8.7-29q0-99.2 0-198.5c0-11.1 3.3-21.3 8.7-29z"/>
	</g>
</svg>