<svg version="1.2" xmlns="http://www.w3.org/2000/svg" viewBox="0 0 1520 1286" width="1520" height="1286">
	<title>screen</title>
	<style>
		.s0 { fill: #705ed6 } 
		.s1 { fill: #836efa } 
		.s2 { fill: #b6aafa } 
		.s3 { fill: #e0dbff } 
		.s4 { fill: #ffffff } 
	</style>
	<g id="&lt;Group&gt;">
		<g id="&lt;Group&gt;">
			<path id="&lt;Path&gt;" class="s0" d="m784.4 1217.4h-258.3l64.6-238.8h258.2z"/>
		</g>
		<g id="&lt;Group&gt;">
			<path id="&lt;Path&gt;" class="s1" d="m816 1217.4h-258.2l64.5-238.8h258.3z"/>
		</g>
		<g id="&lt;Group&gt;">
			<g id="&lt;Group&gt;">
				<path id="&lt;Path&gt;" class="s1" d="m1394.2 998.9h-1300.7c-30.8 0-55.8-24.9-55.8-55.7v-854.8c0-30.8 25-55.7 55.8-55.7h1300.7c30.8 0 55.7 24.9 55.7 55.7v854.8c0 30.8-24.9 55.7-55.7 55.7z"/>
			</g>
			<g id="&lt;Group&gt;">
				<path id="&lt;Path&gt;" class="s2" d="m1425.8 998.9h-1300.7c-30.8 0-55.7-24.9-55.7-55.7v-854.8c0-30.8 24.9-55.7 55.7-55.7h1300.7c30.8 0 55.8 24.9 55.8 55.7v854.8c0 30.8-25 55.7-55.8 55.7z"/>
			</g>
			<g id="&lt;Group&gt;">
				<path id="&lt;Path&gt;" class="s3" d="m125.1 990.3c-25.9 0-47.1-21.2-47.1-47.1v-854.8c0-26 21.2-47.1 47.1-47.1h1300.7c26 0 47.1 21.1 47.1 47.1v854.8c0 25.9-21.1 47.1-47.1 47.1z"/>
			</g>
			<g id="&lt;Group&gt;">
				<path id="&lt;Path&gt;" class="s4" d="m86.7 895.1v-758.6c0-21.3 17.2-38.5 38.4-38.5h1300.7c21.3 0 38.5 17.2 38.5 38.5v758.6c0 21.3-17.2 38.5-38.5 38.5h-1300.7c-21.2 0-38.4-17.2-38.4-38.5z"/>
			</g>
		</g>
		<g id="&lt;Group&gt;">
			<path id="&lt;Path&gt;" class="s2" d="m936.9 1254.9h-459.5c-17 0-30.8-13.8-30.8-30.8 0-17 13.8-30.7 30.8-30.7h459.5c17 0 30.8 13.7 30.8 30.7 0 17-13.8 30.8-30.8 30.8z"/>
		</g>
	</g>
</svg>