<svg version="1.2" xmlns="http://www.w3.org/2000/svg" viewBox="0 0 1201 223" width="1201" height="223">
	<title>searchbar</title>
	<style>
		.s0 { fill: #3eafe7 } 
		.s1 { fill: #ffffff } 
	</style>
	<g id="&lt;Group&gt;">
		<g id="&lt;Group&gt;">
			<path id="&lt;Path&gt;" class="s0" d="m1098.8 194h-996.7c-38.2 0-69.2-31-69.2-69.2v-27.1c0-38.2 31-69.2 69.2-69.2h996.7c38.2 0 69.2 31 69.2 69.2v27.1c0 38.2-31 69.2-69.2 69.2z"/>
		</g>
		<g id="&lt;Group&gt;">
			<path id="&lt;Path&gt;" class="s1" d="m1094 164.7h-590.7c-9.6 0-17.4-7.7-17.4-17.4v-65.4c0-9.6 7.8-17.4 17.4-17.4h590.7c9.6 0 17.4 7.8 17.4 17.4v65.4c0 9.7-7.8 17.4-17.4 17.4z"/>
		</g>
		<g id="&lt;Group&gt;">
			<path id="&lt;Path&gt;" class="s1" d="m166.9 117.3l30.5 30.5-6.8 6.7-30.6-30.5c-12.5 9.1-30.2 8-41.5-3.3-12.5-12.5-12.5-32.9 0-45.4 12.6-12.5 32.9-12.5 45.4 0 11.5 11.5 12.4 29.4 3 42z"/>
		</g>
	</g>
</svg>